<?xml version="1.0" encoding="utf-8"?>
<!-- Generator: Adobe Illustrator 28.0.0, SVG Export Plug-In . SVG Version: 6.00 Build 0)  -->
<svg version="1.1" id="Layer_1" xmlns="http://www.w3.org/2000/svg" xmlns:xlink="http://www.w3.org/1999/xlink" x="0px" y="0px"
	 viewBox="0 0 250.15 634.4" style="enable-background:new 0 0 250.15 634.4;" xml:space="preserve">
<g>
	<g>
		<path style="fill:none;stroke:#D9DBDF;stroke-width:1.4;stroke-linecap:round;stroke-miterlimit:10;" d="M29.87,69.63h-3.9
			c-2.58,0-4.69-2.11-4.69-4.69V42.66"/>
		
			<circle style="fill:none;stroke:#D9DBDF;stroke-width:1.4;stroke-linecap:round;stroke-miterlimit:10;" cx="34.45" cy="69.63" r="4.49"/>
	</g>
	<g>
		<linearGradient id="SVGID_1_" gradientUnits="userSpaceOnUse" x1="113.0332" y1="0.5" x2="113.0332" y2="37.2374">
			<stop  offset="0" style="stop-color:#232140"/>
			<stop  offset="1" style="stop-color:#16142C"/>
		</linearGradient>
		<path style="fill:url(#SVGID_1_);stroke:#232140;stroke-miterlimit:10;" d="M217.65,37.24H8.42c-1.1,0-2-0.9-2-2V2.5
			c0-1.1,0.9-2,2-2h209.23c1.1,0,2,0.9,2,2v32.74C219.65,36.34,218.75,37.24,217.65,37.24z"/>
		<text transform="matrix(1 0 0 1 47.5312 23.8453)" style="fill:#D9DBDF; font-family:'Roboto-Regular'; font-size:16px;">main</text>
		<path style="fill:none;stroke:#D9DBDF;stroke-miterlimit:10;" d="M36.22,13.24c0,2.28-3.69,4.12-8.25,4.12s-8.25-1.85-8.25-4.12
			 M36.22,13.24c0-2.28-3.69-4.12-8.25-4.12s-8.25,1.85-8.25,4.12 M36.22,13.24v11.25c0,2.28-3.69,4.12-8.25,4.12
			s-8.25-1.85-8.25-4.12V13.24 M36.22,13.24v3.75 M19.72,13.24v3.75 M36.22,16.99v3.75c0,2.28-3.69,4.12-8.25,4.12
			s-8.25-1.85-8.25-4.12v-3.75 M36.22,16.99c0,2.28-3.69,4.12-8.25,4.12s-8.25-1.85-8.25-4.12"/>
	</g>
	<g>
		
			<linearGradient id="SVGID_00000145754414490579492740000005090804319992364934_" gradientUnits="userSpaceOnUse" x1="148.0332" y1="50.5" x2="148.0332" y2="87.2374">
			<stop  offset="0" style="stop-color:#232140"/>
			<stop  offset="1" style="stop-color:#16142C"/>
		</linearGradient>
		<path style="fill:url(#SVGID_00000145754414490579492740000005090804319992364934_);stroke:#232140;stroke-miterlimit:10;" d="
			M247.65,87.24H48.42c-1.1,0-2-0.9-2-2V52.5c0-1.1,0.9-2,2-2h199.23c1.1,0,2,0.9,2,2v32.74C249.65,86.34,248.75,87.24,247.65,87.24
			z"/>
		<g>
			<path style="fill:none;stroke:#58E6D9;stroke-miterlimit:10;" d="M72.59,73.65h-2.43c-1.39,0-2.52-1.14-2.52-2.52V66.2"/>
			<line style="fill:none;stroke:#58E6D9;stroke-miterlimit:10;" x1="62.85" y1="65.81" x2="72.47" y2="65.81"/>
			<circle style="fill:none;stroke:#58E6D9;stroke-miterlimit:10;" cx="60.86" cy="65.89" r="2.1"/>
			<circle style="fill:none;stroke:#58E6D9;stroke-miterlimit:10;" cx="74.74" cy="65.89" r="2.1"/>
			<circle style="fill:none;stroke:#58E6D9;stroke-miterlimit:10;" cx="74.74" cy="73.85" r="2.1"/>
		</g>
		<g>
			<text transform="matrix(1 0 0 1 87.5312 73.8453)" style="fill:#58E6D9; font-family:'system-ui'; font-size:16px;">feat/add-user-age</text>
		</g>
	</g>
	<g>
		
			<linearGradient id="SVGID_00000139995527171827780550000002324131631793318580_" gradientUnits="userSpaceOnUse" x1="172.4471" y1="8178.3262" x2="172.4471" y2="8085.5889" gradientTransform="matrix(1 0 0 -1 -102.3342 8276.7441)">
			<stop  offset="0" style="stop-color:#232140"/>
			<stop  offset="1" style="stop-color:#16142C"/>
		</linearGradient>
		<path style="fill:url(#SVGID_00000139995527171827780550000002324131631793318580_);stroke:#232140;stroke-miterlimit:10;" d="
			M137.73,110.42H81.57l-11.58-12l-11.6,12H2.5c-1.1,0-2,0.9-2,2v76.74c0,1.1,0.9,2,2,2h135.23c1.1,0,2-0.9,2-2v-76.74
			C139.73,111.31,138.83,110.42,137.73,110.42z"/>
		<text transform="matrix(1 0 0 1 33.2946 135.5918)" style="fill:#D9DBDF; font-family:'Roboto-Medium'; font-size:12px;">Cost</text>
		<g>
			<text transform="matrix(1 0 0 1 9.6388 161.7549)" style="fill:#D9DBDF; font-family:'Roboto-Medium'; font-size:12px;">FREE</text>
			<text transform="matrix(1 0 0 1 9.6391 177.5667)" style="fill:#D9DBDF; font-family:'Roboto-Light'; font-size:12px;">n/a</text>
		</g>
		<path style="fill:none;stroke:#58E6D9;stroke-width:0.8889;stroke-miterlimit:10;" d="M18.06,125.76v10.67 M15.39,133.92
			l0.78,0.59c1.04,0.78,2.73,0.78,3.77,0c1.04-0.78,1.04-2.05,0-2.83c-0.52-0.39-1.2-0.59-1.89-0.59c-0.64,0-1.29-0.2-1.78-0.59
			c-0.98-0.78-0.98-2.05,0-2.83s2.58-0.78,3.56,0l0.37,0.29 M26.06,131.09c0,4.42-3.58,8-8,8c-4.42,0-8-3.58-8-8s3.58-8,8-8
			C22.47,123.09,26.06,126.67,26.06,131.09z"/>
	</g>
</g>
<g>
	<g>
		<path style="fill:none;stroke:#D9DBDF;stroke-width:1.4;stroke-linecap:round;stroke-miterlimit:10;" d="M29.87,291.95h-3.9
			c-2.58,0-4.69-2.11-4.69-4.69v-22.28"/>
		
			<circle style="fill:none;stroke:#D9DBDF;stroke-width:1.4;stroke-linecap:round;stroke-miterlimit:10;" cx="34.45" cy="291.95" r="4.49"/>
	</g>
	<g>
		
			<linearGradient id="SVGID_00000047037397322812898260000004201625388118716084_" gradientUnits="userSpaceOnUse" x1="113.0332" y1="222.8253" x2="113.0332" y2="259.5627">
			<stop  offset="0" style="stop-color:#232140"/>
			<stop  offset="1" style="stop-color:#16142C"/>
		</linearGradient>
		<path style="fill:url(#SVGID_00000047037397322812898260000004201625388118716084_);stroke:#232140;stroke-miterlimit:10;" d="
			M217.65,259.56H8.42c-1.1,0-2-0.9-2-2v-32.74c0-1.1,0.9-2,2-2h209.23c1.1,0,2,0.9,2,2v32.74
			C219.65,258.67,218.75,259.56,217.65,259.56z"/>
		<text transform="matrix(1 0 0 1 47.5312 246.1705)" style="fill:#D9DBDF; font-family:'Roboto-Regular'; font-size:16px;">main</text>
		<path style="fill:none;stroke:#D9DBDF;stroke-miterlimit:10;" d="M36.22,235.57c0,2.28-3.69,4.12-8.25,4.12s-8.25-1.85-8.25-4.12
			 M36.22,235.57c0-2.28-3.69-4.12-8.25-4.12s-8.25,1.85-8.25,4.12 M36.22,235.57v11.25c0,2.28-3.69,4.12-8.25,4.12
			s-8.25-1.85-8.25-4.12v-11.25 M36.22,235.57v3.75 M19.72,235.57v3.75 M36.22,239.32v3.75c0,2.28-3.69,4.12-8.25,4.12
			s-8.25-1.85-8.25-4.12v-3.75 M36.22,239.32c0,2.28-3.69,4.12-8.25,4.12s-8.25-1.85-8.25-4.12"/>
	</g>
	<g>
		
			<linearGradient id="SVGID_00000007402471767299281520000018279028177917129136_" gradientUnits="userSpaceOnUse" x1="148.0332" y1="272.8253" x2="148.0332" y2="309.5627">
			<stop  offset="0" style="stop-color:#232140"/>
			<stop  offset="1" style="stop-color:#16142C"/>
		</linearGradient>
		<path style="fill:url(#SVGID_00000007402471767299281520000018279028177917129136_);stroke:#232140;stroke-miterlimit:10;" d="
			M247.65,309.56H48.42c-1.1,0-2-0.9-2-2v-32.74c0-1.1,0.9-2,2-2h199.23c1.1,0,2,0.9,2,2v32.74
			C249.65,308.67,248.75,309.56,247.65,309.56z"/>
		<g>
			<path style="fill:none;stroke:#58E6D9;stroke-miterlimit:10;" d="M72.59,295.97h-2.43c-1.39,0-2.52-1.14-2.52-2.52v-4.92"/>
			<line style="fill:none;stroke:#58E6D9;stroke-miterlimit:10;" x1="62.85" y1="288.14" x2="72.47" y2="288.14"/>
			<circle style="fill:none;stroke:#58E6D9;stroke-miterlimit:10;" cx="60.86" cy="288.22" r="2.1"/>
			<circle style="fill:none;stroke:#58E6D9;stroke-miterlimit:10;" cx="74.74" cy="288.22" r="2.1"/>
			<circle style="fill:none;stroke:#58E6D9;stroke-miterlimit:10;" cx="74.74" cy="296.17" r="2.1"/>
		</g>
		<g>
			<text transform="matrix(1 0 0 1 87.5312 296.1705)" style="fill:#58E6D9; font-family:'system-ui'; font-size:16px;">feat/add-user-age</text>
		</g>
	</g>
	<g>
		
			<linearGradient id="SVGID_00000071549137229065060090000018051970068532632511_" gradientUnits="userSpaceOnUse" x1="172.4471" y1="7956.001" x2="172.4471" y2="7863.2637" gradientTransform="matrix(1 0 0 -1 -102.3342 8276.7441)">
			<stop  offset="0" style="stop-color:#232140"/>
			<stop  offset="1" style="stop-color:#16142C"/>
		</linearGradient>
		<path style="fill:url(#SVGID_00000071549137229065060090000018051970068532632511_);stroke:#232140;stroke-miterlimit:10;" d="
			M137.73,332.74H81.57l-11.58-12l-11.6,12H2.5c-1.1,0-2,0.9-2,2v76.74c0,1.1,0.9,2,2,2h135.23c1.1,0,2-0.9,2-2v-76.74
			C139.73,333.64,138.83,332.74,137.73,332.74z"/>
		<text transform="matrix(1 0 0 1 33.2946 357.9171)" style="fill:#D9DBDF; font-family:'Roboto-Medium'; font-size:12px;">Cost</text>
		<g>
			<text transform="matrix(1 0 0 1 9.6388 384.0802)" style="fill:#D9DBDF; font-family:'Roboto-Medium'; font-size:12px;"> ~$0.32:</text>
			<text transform="matrix(1 0 0 1 9.6391 399.892)" style="fill:#D9DBDF; font-family:'Roboto-Light'; font-size:12px;">Per branch, per day</text>
		</g>
		<path style="fill:none;stroke:#58E6D9;stroke-width:0.8889;stroke-miterlimit:10;" d="M18.06,348.08v10.67 M15.39,356.25
			l0.78,0.59c1.04,0.78,2.73,0.78,3.77,0c1.04-0.78,1.04-2.05,0-2.83c-0.52-0.39-1.2-0.59-1.89-0.59c-0.64,0-1.29-0.2-1.78-0.59
			c-0.98-0.78-0.98-2.05,0-2.83c0.98-0.78,2.58-0.78,3.56,0l0.37,0.29 M26.06,353.42c0,4.42-3.58,8-8,8s-8-3.58-8-8
			c0-4.42,3.58-8,8-8S26.06,349,26.06,353.42z"/>
	</g>
</g>
<g>
	<g>
		<path style="fill:none;stroke:#D9DBDF;stroke-width:1.4;stroke-linecap:round;stroke-miterlimit:10;" d="M29.87,512.37h-3.9
			c-2.58,0-4.69-2.11-4.69-4.69v-22.28"/>
		
			<circle style="fill:none;stroke:#D9DBDF;stroke-width:1.4;stroke-linecap:round;stroke-miterlimit:10;" cx="34.45" cy="512.37" r="4.49"/>
	</g>
	<g>
		
			<linearGradient id="SVGID_00000103245165024579029400000007167479875008093853_" gradientUnits="userSpaceOnUse" x1="113.0332" y1="443.2481" x2="113.0332" y2="479.9855">
			<stop  offset="0" style="stop-color:#232140"/>
			<stop  offset="1" style="stop-color:#16142C"/>
		</linearGradient>
		<path style="fill:url(#SVGID_00000103245165024579029400000007167479875008093853_);stroke:#232140;stroke-miterlimit:10;" d="
			M217.65,479.99H8.42c-1.1,0-2-0.9-2-2v-32.74c0-1.1,0.9-2,2-2h209.23c1.1,0,2,0.9,2,2v32.74
			C219.65,479.09,218.75,479.99,217.65,479.99z"/>
		<text transform="matrix(1 0 0 1 47.5312 466.5934)" style="fill:#D9DBDF; font-family:'Roboto-Regular'; font-size:16px;">main</text>
		<path style="fill:none;stroke:#D9DBDF;stroke-miterlimit:10;" d="M36.22,455.99c0,2.28-3.69,4.12-8.25,4.12s-8.25-1.85-8.25-4.12
			 M36.22,455.99c0-2.28-3.69-4.12-8.25-4.12s-8.25,1.85-8.25,4.12 M36.22,455.99v11.25c0,2.28-3.69,4.12-8.25,4.12
			s-8.25-1.85-8.25-4.12v-11.25 M36.22,455.99v3.75 M19.72,455.99v3.75 M36.22,459.74v3.75c0,2.28-3.69,4.12-8.25,4.12
			s-8.25-1.85-8.25-4.12v-3.75 M36.22,459.74c0,2.28-3.69,4.12-8.25,4.12s-8.25-1.85-8.25-4.12"/>
	</g>
	<g>
		
			<linearGradient id="SVGID_00000051343545887287543360000016266460471994879648_" gradientUnits="userSpaceOnUse" x1="148.0332" y1="493.2481" x2="148.0332" y2="529.9855">
			<stop  offset="0" style="stop-color:#232140"/>
			<stop  offset="1" style="stop-color:#16142C"/>
		</linearGradient>
		<path style="fill:url(#SVGID_00000051343545887287543360000016266460471994879648_);stroke:#232140;stroke-miterlimit:10;" d="
			M247.65,529.99H48.42c-1.1,0-2-0.9-2-2v-32.74c0-1.1,0.9-2,2-2h199.23c1.1,0,2,0.9,2,2v32.74
			C249.65,529.09,248.75,529.99,247.65,529.99z"/>
		<g>
			<path style="fill:none;stroke:#58E6D9;stroke-miterlimit:10;" d="M72.59,516.39h-2.43c-1.39,0-2.52-1.14-2.52-2.52v-4.92"/>
			<line style="fill:none;stroke:#58E6D9;stroke-miterlimit:10;" x1="62.85" y1="508.56" x2="72.47" y2="508.56"/>
			<circle style="fill:none;stroke:#58E6D9;stroke-miterlimit:10;" cx="60.86" cy="508.64" r="2.1"/>
			<circle style="fill:none;stroke:#58E6D9;stroke-miterlimit:10;" cx="74.74" cy="508.64" r="2.1"/>
			<circle style="fill:none;stroke:#58E6D9;stroke-miterlimit:10;" cx="74.74" cy="516.59" r="2.1"/>
		</g>
		<g>
			<text transform="matrix(1 0 0 1 87.5311 516.5934)" style="fill:#58E6D9; font-family:'system-ui'; font-size:16px;">feat/add-user-age</text>
		</g>
	</g>
	<g>
		
			<linearGradient id="SVGID_00000130607429975809559690000013400101221233391802_" gradientUnits="userSpaceOnUse" x1="172.4471" y1="7735.5781" x2="172.4471" y2="7642.8408" gradientTransform="matrix(1 0 0 -1 -102.3342 8276.7441)">
			<stop  offset="0" style="stop-color:#232140"/>
			<stop  offset="1" style="stop-color:#16142C"/>
		</linearGradient>
		<path style="fill:url(#SVGID_00000130607429975809559690000013400101221233391802_);stroke:#232140;stroke-miterlimit:10;" d="
			M137.73,553.17H81.57l-11.58-12l-11.6,12H2.5c-1.1,0-2,0.9-2,2v76.74c0,1.1,0.9,2,2,2h135.23c1.1,0,2-0.9,2-2v-76.74
			C139.73,554.06,138.83,553.17,137.73,553.17z"/>
		<text transform="matrix(1 0 0 1 33.2946 578.34)" style="fill:#D9DBDF; font-family:'Roboto-Medium'; font-size:12px;">Cost</text>
		<g>
			<text transform="matrix(1 0 0 1 9.6388 604.503)" style="fill:#D9DBDF; font-family:'Roboto-Medium'; font-size:12px;">$0.014:</text>
			<text transform="matrix(1 0 0 1 9.6391 620.3148)" style="fill:#D9DBDF; font-family:'Roboto-Light'; font-size:12px;">Per hour</text>
		</g>
		<path style="fill:none;stroke:#58E6D9;stroke-width:0.8889;stroke-miterlimit:10;" d="M18.06,568.51v10.67 M15.39,576.67
			l0.78,0.59c1.04,0.78,2.73,0.78,3.77,0c1.04-0.78,1.04-2.05,0-2.83c-0.52-0.39-1.2-0.59-1.89-0.59c-0.64,0-1.29-0.2-1.78-0.59
			c-0.98-0.78-0.98-2.05,0-2.83s2.58-0.78,3.56,0l0.37,0.29 M26.06,573.84c0,4.42-3.58,8-8,8s-8-3.58-8-8c0-4.42,3.58-8,8-8
			S26.06,569.42,26.06,573.84z"/>
	</g>
</g>
</svg>
