<?xml version="1.0" encoding="utf-8"?>
<!-- Generator: Adobe Illustrator 28.0.0, SVG Export Plug-In . SVG Version: 6.00 Build 0)  -->
<svg version="1.1" id="Layer_1" xmlns="http://www.w3.org/2000/svg" xmlns:xlink="http://www.w3.org/1999/xlink" x="0px" y="0px"
	 viewBox="0 0 344.93 478.22" style="enable-background:new 0 0 344.93 478.22;" xml:space="preserve">
<g>
	<g>
		<g>
			<path style="fill:none;stroke:#C9CBCF;stroke-width:1.4;stroke-miterlimit:10;" d="M23.95,230.99h-3.9
				c-2.58,0-4.69-2.11-4.69-4.69v-22.28"/>
			<circle style="fill:none;stroke:#C9CBCF;stroke-width:1.4;stroke-miterlimit:10;" cx="28.53" cy="230.99" r="4.49"/>
		</g>
		<linearGradient id="SVGID_1_" gradientUnits="userSpaceOnUse" x1="107.1128" y1="161.8671" x2="107.1128" y2="198.6044">
			<stop  offset="0" style="stop-color:#232140"/>
			<stop  offset="1" style="stop-color:#16142C"/>
		</linearGradient>
		<path style="fill:url(#SVGID_1_);stroke:#232140;stroke-miterlimit:10;" d="M211.73,198.6H2.5c-1.1,0-2-0.9-2-2v-32.74
			c0-1.1,0.9-2,2-2h209.23c1.1,0,2,0.9,2,2v32.74C213.73,197.71,212.83,198.6,211.73,198.6z"/>
		<text transform="matrix(1 0 0 1 41.6109 185.2125)" style="fill:#C9CBCF; font-family:'system-ui'; font-size:16px;">web-app-main</text>
		
			<linearGradient id="SVGID_00000150095691328499655560000010324534302129343383_" gradientUnits="userSpaceOnUse" x1="142.1128" y1="211.8671" x2="142.1128" y2="248.6044">
			<stop  offset="0" style="stop-color:#232140"/>
			<stop  offset="1" style="stop-color:#16142C"/>
		</linearGradient>
		<path style="fill:url(#SVGID_00000150095691328499655560000010324534302129343383_);stroke:#232140;stroke-miterlimit:10;" d="
			M241.73,248.6H42.5c-1.1,0-2-0.9-2-2v-32.74c0-1.1,0.9-2,2-2h199.23c1.1,0,2,0.9,2,2v32.74
			C243.73,247.71,242.83,248.6,241.73,248.6z"/>
		<g>
			<path style="fill:none;stroke:#58E6D9;stroke-miterlimit:10;" d="M66.67,235.01h-2.43c-1.39,0-2.52-1.14-2.52-2.52v-4.92"/>
			<line style="fill:none;stroke:#58E6D9;stroke-miterlimit:10;" x1="56.93" y1="227.18" x2="66.54" y2="227.18"/>
			<circle style="fill:none;stroke:#58E6D9;stroke-miterlimit:10;" cx="54.94" cy="227.26" r="2.1"/>
			<circle style="fill:none;stroke:#58E6D9;stroke-miterlimit:10;" cx="68.82" cy="227.26" r="2.1"/>
			<circle style="fill:none;stroke:#58E6D9;stroke-miterlimit:10;" cx="68.82" cy="235.21" r="2.1"/>
		</g>
		<g>
			<text transform="matrix(1 0 0 1 81.6108 235.2125)" style="fill:#58E6D9; font-family:'system-ui'; font-size:16px;">feat/add-user-age</text>
		</g>
		<path style="fill:none;stroke:#C9CBCF;stroke-width:1.0909;stroke-miterlimit:10;" d="M24.69,177.78l2.45,2.45l-2.45,2.45
			 M19.78,182.69l-2.45-2.45l2.45-2.45 M15.69,189.24h13.09c1.36,0,2.45-1.1,2.45-2.45v-13.09c0-1.36-1.1-2.45-2.45-2.45H15.69
			c-1.36,0-2.45,1.1-2.45,2.45v13.09C13.23,188.14,14.33,189.24,15.69,189.24z"/>
	</g>
	<g>
		<g>
			<path style="fill:none;stroke:#C9CBCF;stroke-width:1.4;stroke-miterlimit:10;" d="M23.95,346.61h-3.9
				c-2.58,0-4.69-2.11-4.69-4.69v-22.28"/>
			<circle style="fill:none;stroke:#C9CBCF;stroke-width:1.4;stroke-miterlimit:10;" cx="28.53" cy="346.61" r="4.49"/>
		</g>
		
			<linearGradient id="SVGID_00000064340121456425668400000013913934583425746105_" gradientUnits="userSpaceOnUse" x1="107.1128" y1="277.4874" x2="107.1128" y2="314.2248">
			<stop  offset="0" style="stop-color:#232140"/>
			<stop  offset="1" style="stop-color:#16142C"/>
		</linearGradient>
		<path style="fill:url(#SVGID_00000064340121456425668400000013913934583425746105_);stroke:#232140;stroke-miterlimit:10;" d="
			M211.73,314.22H2.5c-1.1,0-2-0.9-2-2v-32.74c0-1.1,0.9-2,2-2h209.23c1.1,0,2,0.9,2,2v32.74
			C213.73,313.33,212.83,314.22,211.73,314.22z"/>
		<text transform="matrix(1 0 0 1 41.6109 300.8328)" style="fill:#C9CBCF; font-family:'system-ui'; font-size:16px;">native-app-main</text>
		
			<linearGradient id="SVGID_00000079483862837968055770000015898581533681608894_" gradientUnits="userSpaceOnUse" x1="142.1128" y1="327.4874" x2="142.1128" y2="364.2248">
			<stop  offset="0" style="stop-color:#232140"/>
			<stop  offset="1" style="stop-color:#16142C"/>
		</linearGradient>
		<path style="fill:url(#SVGID_00000079483862837968055770000015898581533681608894_);stroke:#232140;stroke-miterlimit:10;" d="
			M241.73,364.22H42.5c-1.1,0-2-0.9-2-2v-32.74c0-1.1,0.9-2,2-2h199.23c1.1,0,2,0.9,2,2v32.74
			C243.73,363.33,242.83,364.22,241.73,364.22z"/>
		<g>
			<path style="fill:none;stroke:#57538C;stroke-miterlimit:10;" d="M66.67,350.63h-2.43c-1.39,0-2.52-1.14-2.52-2.52v-4.92"/>
			<line style="fill:none;stroke:#57538C;stroke-miterlimit:10;" x1="56.93" y1="342.8" x2="66.54" y2="342.8"/>
			<circle style="fill:none;stroke:#57538C;stroke-miterlimit:10;" cx="54.94" cy="342.88" r="2.1"/>
			<circle style="fill:none;stroke:#57538C;stroke-miterlimit:10;" cx="68.82" cy="342.88" r="2.1"/>
			<circle style="fill:none;stroke:#57538C;stroke-miterlimit:10;" cx="68.82" cy="350.83" r="2.1"/>
		</g>
		<g>
			<text transform="matrix(1 0 0 1 81.6108 350.8328)" style="fill:#57538C; font-family:'system-ui'; font-size:16px;">?</text>
		</g>
		<path style="fill:none;stroke:#C9CBCF;stroke-width:1.0909;stroke-miterlimit:10;" d="M24.69,293.4l2.45,2.45l-2.45,2.45
			 M19.78,298.31l-2.45-2.45l2.45-2.45 M15.69,304.86h13.09c1.36,0,2.45-1.1,2.45-2.45v-13.09c0-1.36-1.1-2.45-2.45-2.45H15.69
			c-1.36,0-2.45,1.1-2.45,2.45v13.09C13.23,303.76,14.33,304.86,15.69,304.86z"/>
	</g>
	<g>
		<g>
			<path style="fill:none;stroke:#C9CBCF;stroke-width:1.4;stroke-miterlimit:10;" d="M23.95,460.11h-3.9
				c-2.58,0-4.69-2.11-4.69-4.69v-22.28"/>
			<circle style="fill:none;stroke:#C9CBCF;stroke-width:1.4;stroke-miterlimit:10;" cx="28.53" cy="460.11" r="4.49"/>
		</g>
		
			<linearGradient id="SVGID_00000157290737017589343410000007646594274008329607_" gradientUnits="userSpaceOnUse" x1="112.1128" y1="390.9874" x2="112.1128" y2="427.7248">
			<stop  offset="0" style="stop-color:#232140"/>
			<stop  offset="1" style="stop-color:#16142C"/>
		</linearGradient>
		<path style="fill:url(#SVGID_00000157290737017589343410000007646594274008329607_);stroke:#232140;stroke-miterlimit:10;" d="
			M211.73,427.72H2.5c-1.1,0-2-0.9-2-2v-32.74c0-1.1,0.9-2,2-2h219.23c1.1,0,2,0.9,2,2v32.74
			C223.73,426.83,212.83,427.72,211.73,427.72z"/>
		<text transform="matrix(1 0 0 1 41.6109 414.3329)" style="fill:#C9CBCF; font-family:'system-ui'; font-size:16px;">shared-api-main</text>
		
			<linearGradient id="SVGID_00000121254042942646502590000013878073968029891203_" gradientUnits="userSpaceOnUse" x1="142.1128" y1="440.9874" x2="142.1128" y2="477.7248">
			<stop  offset="0" style="stop-color:#232140"/>
			<stop  offset="1" style="stop-color:#16142C"/>
		</linearGradient>
		<path style="fill:url(#SVGID_00000121254042942646502590000013878073968029891203_);stroke:#232140;stroke-miterlimit:10;" d="
			M241.73,477.72H42.5c-1.1,0-2-0.9-2-2v-32.74c0-1.1,0.9-2,2-2h199.23c1.1,0,2,0.9,2,2v32.74
			C243.73,476.83,242.83,477.72,241.73,477.72z"/>
		<g>
			<path style="fill:none;stroke:#57538C;stroke-miterlimit:10;" d="M66.67,464.13h-2.43c-1.39,0-2.52-1.14-2.52-2.52v-4.92"/>
			<line style="fill:none;stroke:#57538C;stroke-miterlimit:10;" x1="56.93" y1="456.3" x2="66.54" y2="456.3"/>
			<circle style="fill:none;stroke:#57538C;stroke-miterlimit:10;" cx="54.94" cy="456.38" r="2.1"/>
			<circle style="fill:none;stroke:#57538C;stroke-miterlimit:10;" cx="68.82" cy="456.38" r="2.1"/>
			<circle style="fill:none;stroke:#57538C;stroke-miterlimit:10;" cx="68.82" cy="464.33" r="2.1"/>
		</g>
		<g>
			<text transform="matrix(1 0 0 1 81.6108 464.3329)" style="fill:#57538C; font-family:'system-ui'; font-size:16px;">?</text>
		</g>
		<path style="fill:none;stroke:#C9CBCF;stroke-width:1.0909;stroke-miterlimit:10;" d="M24.69,406.9l2.45,2.45l-2.45,2.45
			 M19.78,411.81l-2.45-2.45l2.45-2.45 M15.69,418.36h13.09c1.36,0,2.45-1.1,2.45-2.45v-13.09c0-1.36-1.1-2.45-2.45-2.45H15.69
			c-1.36,0-2.45,1.1-2.45,2.45v13.09C13.23,417.26,14.33,418.36,15.69,418.36z"/>
	</g>
	<g>
		<g>
			<path style="fill:none;stroke:#C9CBCF;stroke-width:1.4;stroke-miterlimit:10;" d="M23.95,69.63h-3.9
				c-2.58,0-4.69-2.11-4.69-4.69V42.66"/>
			<circle style="fill:none;stroke:#C9CBCF;stroke-width:1.4;stroke-miterlimit:10;" cx="28.53" cy="69.63" r="4.49"/>
		</g>
		
			<linearGradient id="SVGID_00000093890542304557158740000004951697365683119770_" gradientUnits="userSpaceOnUse" x1="107.1128" y1="0.5" x2="107.1128" y2="37.2374">
			<stop  offset="0" style="stop-color:#232140"/>
			<stop  offset="1" style="stop-color:#16142C"/>
		</linearGradient>
		<path style="fill:url(#SVGID_00000093890542304557158740000004951697365683119770_);stroke:#232140;stroke-miterlimit:10;" d="
			M211.73,37.24H2.5c-1.1,0-2-0.9-2-2V2.5c0-1.1,0.9-2,2-2h209.23c1.1,0,2,0.9,2,2v32.74C213.73,36.34,212.83,37.24,211.73,37.24z"
			/>
		<text transform="matrix(1 0 0 1 41.6109 23.8455)" style="fill:#C9CBCF; font-family:'system-ui'; font-size:16px;">prod-db-main</text>
		<path style="fill:none;stroke:#C9CBCF;stroke-miterlimit:10;" d="M30.3,13.24c0,2.28-3.69,4.12-8.25,4.12s-8.25-1.85-8.25-4.12
			 M30.3,13.24c0-2.28-3.69-4.12-8.25-4.12s-8.25,1.85-8.25,4.12 M30.3,13.24v11.25c0,2.28-3.69,4.12-8.25,4.12
			s-8.25-1.85-8.25-4.12V13.24 M30.3,13.24v3.75 M13.8,13.24v3.75 M30.3,16.99v3.75c0,2.28-3.69,4.12-8.25,4.12
			s-8.25-1.85-8.25-4.12v-3.75 M30.3,16.99c0,2.28-3.69,4.12-8.25,4.12s-8.25-1.85-8.25-4.12"/>
		
			<linearGradient id="SVGID_00000138546532535184832840000014802400981855355839_" gradientUnits="userSpaceOnUse" x1="142.1128" y1="50.5" x2="142.1128" y2="87.2374">
			<stop  offset="0" style="stop-color:#232140"/>
			<stop  offset="1" style="stop-color:#16142C"/>
		</linearGradient>
		<path style="fill:url(#SVGID_00000138546532535184832840000014802400981855355839_);stroke:#232140;stroke-miterlimit:10;" d="
			M241.73,87.24H42.5c-1.1,0-2-0.9-2-2V52.5c0-1.1,0.9-2,2-2h199.23c1.1,0,2,0.9,2,2v32.74C243.73,86.34,242.83,87.24,241.73,87.24z
			"/>
		<g>
			<path style="fill:none;stroke:#58E6D9;stroke-miterlimit:10;" d="M66.67,73.65h-2.43c-1.39,0-2.52-1.14-2.52-2.52V66.2"/>
			<line style="fill:none;stroke:#58E6D9;stroke-miterlimit:10;" x1="56.93" y1="65.81" x2="66.54" y2="65.81"/>
			<circle style="fill:none;stroke:#58E6D9;stroke-miterlimit:10;" cx="54.94" cy="65.89" r="2.1"/>
			<circle style="fill:none;stroke:#58E6D9;stroke-miterlimit:10;" cx="68.82" cy="65.89" r="2.1"/>
			<circle style="fill:none;stroke:#58E6D9;stroke-miterlimit:10;" cx="68.82" cy="73.85" r="2.1"/>
		</g>
		<g>
			<text transform="matrix(1 0 0 1 81.6108 73.8454)" style="fill:#58E6D9; font-family:'system-ui'; font-size:16px;">feat/add-user-age</text>
		</g>
	</g>
	<path style="fill:none;stroke:#58E6D9;stroke-width:1.9893;stroke-linejoin:round;" d="M285.26,145.74
		c2.97,1.42,4.23,4.98,2.81,7.96c-0.29,0.61-0.69,1.17-1.17,1.65l-5.97,5.97c-2.33,2.33-6.11,2.33-8.44,0
		c-2.33-2.33-2.33-6.11,0-8.44l0,0l2.33-2.33 M292.54,149.72l2.33-2.33c2.33-2.33,2.33-6.11,0-8.44c-2.33-2.33-6.11-2.33-8.44,0
		l-5.97,5.97c-2.33,2.33-2.33,6.11,0,8.44c0.48,0.48,1.04,0.87,1.65,1.17"/>
	<polyline style="fill:none;stroke:#58E6D9;stroke-width:1.2427;stroke-miterlimit:10;stroke-opacity:0.3;" points="253.5,68.87 
		283.69,68.87 283.69,127.05 	"/>
	<polyline style="fill:none;stroke:#58E6D9;stroke-width:1.2427;stroke-miterlimit:10;stroke-opacity:0.3;" points="253.5,233.4 
		283.69,233.4 283.69,175.21 	"/>
	<polyline style="fill:none;stroke:#57538C;stroke-width:1.2427;stroke-miterlimit:10;stroke-opacity:0.3;" points="299.5,68.87 
		329.69,68.87 329.69,192.05 	"/>
	<polyline style="fill:none;stroke:#57538C;stroke-width:1.2427;stroke-miterlimit:10;stroke-opacity:0.3;" points="256.5,466.4 
		329.69,466.4 329.69,248.21 	"/>
	<path style="fill:none;stroke:#57538C;stroke-width:1.9893;stroke-linejoin:round;" d="M326.33,213.61c1.85-1.62,4.86-1.62,6.72,0
		c1.86,1.62,1.86,4.25,0,5.88c-0.32,0.28-0.68,0.52-1.06,0.7c-1.18,0.57-2.3,1.58-2.3,2.89v1.19 M343.93,220.7
		c0,7.87-6.38,14.25-14.25,14.25s-14.25-6.38-14.25-14.25c0-7.87,6.38-14.25,14.25-14.25S343.93,212.83,343.93,220.7z
		 M329.69,229.01h0.01v0.01h-0.01V229.01z"/>
	
		<line style="fill:none;stroke:#57538C;stroke-width:1.2427;stroke-miterlimit:10;stroke-opacity:0.3;" x1="253.5" y1="348.73" x2="329.06" y2="348.73"/>
</g>
</svg>
