<?xml version="1.0" encoding="utf-8"?>
<!-- Generator: Adobe Illustrator 28.0.0, SVG Export Plug-In . SVG Version: 6.00 Build 0)  -->
<svg version="1.1" id="Layer_1" xmlns="http://www.w3.org/2000/svg" xmlns:xlink="http://www.w3.org/1999/xlink" x="0px" y="0px"
	 viewBox="0 0 321.54 369.74" style="enable-background:new 0 0 321.54 369.74;" xml:space="preserve">
<g>
	<g>
		<path style="fill:none;stroke:#C9CBCF;stroke-width:1.4;stroke-miterlimit:10;" d="M23.95,69.63h-3.9c-2.58,0-4.69-2.11-4.69-4.69
			V42.66"/>
		<circle style="fill:none;stroke:#C9CBCF;stroke-width:1.4;stroke-miterlimit:10;" cx="28.53" cy="69.63" r="4.49"/>
	</g>
	<g>
		<path style="fill:none;stroke:#C9CBCF;stroke-width:1.4;stroke-miterlimit:10;" d="M65.6,121.38h-3.9c-2.58,0-4.69-2.11-4.69-4.69
			V94.41"/>
		<circle style="fill:none;stroke:#C9CBCF;stroke-width:1.4;stroke-miterlimit:10;" cx="70.18" cy="121.38" r="4.49"/>
	</g>
	<g>
		<path style="fill:none;stroke:#C9CBCF;stroke-width:1.4;stroke-miterlimit:10;" d="M23.8,230.63h-3.9c-2.58,0-4.69-2.11-4.69-4.69
			V61.66"/>
		<circle style="fill:none;stroke:#C9CBCF;stroke-width:1.4;stroke-miterlimit:10;" cx="28.37" cy="230.63" r="4.49"/>
	</g>
	<g>
		<linearGradient id="SVGID_1_" gradientUnits="userSpaceOnUse" x1="107.1128" y1="0.5" x2="107.1128" y2="37.2374">
			<stop  offset="0" style="stop-color:#232140"/>
			<stop  offset="1" style="stop-color:#16142C"/>
		</linearGradient>
		<path style="fill:url(#SVGID_1_);stroke:#232140;stroke-miterlimit:10;" d="M211.73,37.24H2.5c-1.1,0-2-0.9-2-2V2.5
			c0-1.1,0.9-2,2-2h209.23c1.1,0,2,0.9,2,2v32.74C213.73,36.34,212.83,37.24,211.73,37.24z"/>
		<text transform="matrix(1 0 0 1 41.6109 23.8456)" style="fill:#C9CBCF; font-family:'system-ui'; font-size:16px;">main</text>
		<path style="fill:none;stroke:#C9CBCF;stroke-miterlimit:10;" d="M30.3,13.24c0,2.28-3.69,4.12-8.25,4.12s-8.25-1.85-8.25-4.12
			 M30.3,13.24c0-2.28-3.69-4.12-8.25-4.12s-8.25,1.85-8.25,4.12 M30.3,13.24v11.25c0,2.28-3.69,4.12-8.25,4.12
			s-8.25-1.85-8.25-4.12V13.24 M30.3,13.24v3.75 M13.8,13.24v3.75 M30.3,16.99v3.75c0,2.28-3.69,4.12-8.25,4.12
			s-8.25-1.85-8.25-4.12v-3.75 M30.3,16.99c0,2.28-3.69,4.12-8.25,4.12s-8.25-1.85-8.25-4.12"/>
	</g>
	<g>
		
			<linearGradient id="SVGID_00000008861261188691564350000005248439219718812810_" gradientUnits="userSpaceOnUse" x1="142.1128" y1="50.5" x2="142.1128" y2="87.2374">
			<stop  offset="0" style="stop-color:#232140"/>
			<stop  offset="1" style="stop-color:#16142C"/>
		</linearGradient>
		<path style="fill:url(#SVGID_00000008861261188691564350000005248439219718812810_);stroke:#232140;stroke-miterlimit:10;" d="
			M241.73,87.24H42.5c-1.1,0-2-0.9-2-2V52.5c0-1.1,0.9-2,2-2h199.23c1.1,0,2,0.9,2,2v32.74C243.73,86.34,242.83,87.24,241.73,87.24z
			"/>
		<g>
			<path style="fill:none;stroke:#58E6D9;stroke-miterlimit:10;" d="M66.67,73.65h-2.43c-1.39,0-2.52-1.14-2.52-2.52V66.2"/>
			<line style="fill:none;stroke:#58E6D9;stroke-miterlimit:10;" x1="56.93" y1="65.81" x2="66.54" y2="65.81"/>
			<circle style="fill:none;stroke:#58E6D9;stroke-miterlimit:10;" cx="54.94" cy="65.89" r="2.1"/>
			<circle style="fill:none;stroke:#58E6D9;stroke-miterlimit:10;" cx="68.82" cy="65.89" r="2.1"/>
			<circle style="fill:none;stroke:#58E6D9;stroke-miterlimit:10;" cx="68.82" cy="73.85" r="2.1"/>
		</g>
		<g>
			<text transform="matrix(1 0 0 1 81.6108 73.8453)" style="fill:#58E6D9; font-family:'system-ui'; font-size:16px;">development</text>
		</g>
	</g>
	<g>
		
			<linearGradient id="SVGID_00000072264627093486755060000010961439814078371769_" gradientUnits="userSpaceOnUse" x1="142.1128" y1="212.5" x2="142.1128" y2="249.2374">
			<stop  offset="0" style="stop-color:#232140"/>
			<stop  offset="1" style="stop-color:#16142C"/>
		</linearGradient>
		<path style="fill:url(#SVGID_00000072264627093486755060000010961439814078371769_);stroke:#232140;stroke-miterlimit:10;" d="
			M241.73,249.24H42.5c-1.1,0-2-0.9-2-2V214.5c0-1.1,0.9-2,2-2h199.23c1.1,0,2,0.9,2,2v32.74
			C243.73,248.34,242.83,249.24,241.73,249.24z"/>
		<g>
			<path style="fill:none;stroke:#58E6D9;stroke-miterlimit:10;" d="M66.67,235.65h-2.43c-1.39,0-2.52-1.14-2.52-2.52v-4.92"/>
			<line style="fill:none;stroke:#58E6D9;stroke-miterlimit:10;" x1="56.93" y1="227.81" x2="66.54" y2="227.81"/>
			<circle style="fill:none;stroke:#58E6D9;stroke-miterlimit:10;" cx="54.94" cy="227.89" r="2.1"/>
			<circle style="fill:none;stroke:#58E6D9;stroke-miterlimit:10;" cx="68.82" cy="227.89" r="2.1"/>
			<circle style="fill:none;stroke:#58E6D9;stroke-miterlimit:10;" cx="68.82" cy="235.85" r="2.1"/>
		</g>
		<g>
			<text transform="matrix(1 0 0 1 81.6108 235.8454)" style="fill:#58E6D9; font-family:'system-ui'; font-size:16px;">test</text>
		</g>
	</g>
	<g>
		<path style="fill:none;stroke:#C9CBCF;stroke-width:1.4;stroke-miterlimit:10;" d="M23.8,350.63h-3.9c-2.58,0-4.69-2.11-4.69-4.69
			V222.66"/>
		<circle style="fill:none;stroke:#C9CBCF;stroke-width:1.4;stroke-miterlimit:10;" cx="28.37" cy="350.63" r="4.49"/>
	</g>
	<g>
		
			<linearGradient id="SVGID_00000131328409105803005370000006685456773874732456_" gradientUnits="userSpaceOnUse" x1="142.1128" y1="332.5" x2="142.1128" y2="369.2374">
			<stop  offset="0" style="stop-color:#232140"/>
			<stop  offset="1" style="stop-color:#16142C"/>
		</linearGradient>
		<path style="fill:url(#SVGID_00000131328409105803005370000006685456773874732456_);stroke:#232140;stroke-miterlimit:10;" d="
			M241.73,369.24H42.5c-1.1,0-2-0.9-2-2V334.5c0-1.1,0.9-2,2-2h199.23c1.1,0,2,0.9,2,2v32.74
			C243.73,368.34,242.83,369.24,241.73,369.24z"/>
		<g>
			<path style="fill:none;stroke:#58E6D9;stroke-miterlimit:10;" d="M66.67,355.65h-2.43c-1.39,0-2.52-1.14-2.52-2.52v-4.92"/>
			<line style="fill:none;stroke:#58E6D9;stroke-miterlimit:10;" x1="56.93" y1="347.81" x2="66.54" y2="347.81"/>
			<circle style="fill:none;stroke:#58E6D9;stroke-miterlimit:10;" cx="54.94" cy="347.89" r="2.1"/>
			<circle style="fill:none;stroke:#58E6D9;stroke-miterlimit:10;" cx="68.82" cy="347.89" r="2.1"/>
			<circle style="fill:none;stroke:#58E6D9;stroke-miterlimit:10;" cx="68.82" cy="355.85" r="2.1"/>
		</g>
		<g>
			<text transform="matrix(1 0 0 1 81.6108 355.8453)" style="fill:#58E6D9; font-family:'system-ui'; font-size:16px;">staging</text>
		</g>
	</g>
	<g>
		
			<linearGradient id="SVGID_00000103974303814102023640000009112854465143864754_" gradientUnits="userSpaceOnUse" x1="182.4256" y1="103.0113" x2="182.4256" y2="139.7487">
			<stop  offset="0" style="stop-color:#232140"/>
			<stop  offset="1" style="stop-color:#16142C"/>
		</linearGradient>
		<path style="fill:url(#SVGID_00000103974303814102023640000009112854465143864754_);stroke:#232140;stroke-miterlimit:10;" d="
			M282.04,139.75H82.81c-1.1,0-2-0.9-2-2v-32.74c0-1.1,0.9-2,2-2h199.23c1.1,0,2,0.9,2,2v32.74
			C284.04,138.85,283.14,139.75,282.04,139.75z"/>
		<g>
			<path style="fill:none;stroke:#21A7F9;stroke-miterlimit:10;" d="M106.98,126.16h-2.43c-1.39,0-2.52-1.14-2.52-2.52v-4.92"/>
			<line style="fill:none;stroke:#21A7F9;stroke-miterlimit:10;" x1="97.24" y1="118.32" x2="106.86" y2="118.32"/>
			<circle style="fill:none;stroke:#21A7F9;stroke-miterlimit:10;" cx="95.25" cy="118.4" r="2.1"/>
			<circle style="fill:none;stroke:#21A7F9;stroke-miterlimit:10;" cx="109.13" cy="118.4" r="2.1"/>
			<circle style="fill:none;stroke:#21A7F9;stroke-miterlimit:10;" cx="109.13" cy="126.36" r="2.1"/>
		</g>
		<g>
			<text transform="matrix(1 0 0 1 121.9236 126.3568)" style="fill:#21A7F9; font-family:'system-ui'; font-size:16px;">feat/add-user-age</text>
		</g>
	</g>
	<g>
		<path style="fill:none;stroke:#C9CBCF;stroke-width:1.4;stroke-miterlimit:10;" d="M65.6,283.38h-3.9c-2.58,0-4.69-2.11-4.69-4.69
			v-22.28"/>
		<circle style="fill:none;stroke:#C9CBCF;stroke-width:1.4;stroke-miterlimit:10;" cx="70.18" cy="283.38" r="4.49"/>
	</g>
	<g>
		
			<linearGradient id="SVGID_00000148653503691312203570000003116327188747081655_" gradientUnits="userSpaceOnUse" x1="182.4256" y1="265.0113" x2="182.4256" y2="301.7487">
			<stop  offset="0" style="stop-color:#232140"/>
			<stop  offset="1" style="stop-color:#16142C"/>
		</linearGradient>
		<path style="fill:url(#SVGID_00000148653503691312203570000003116327188747081655_);stroke:#232140;stroke-miterlimit:10;" d="
			M282.04,301.75H82.81c-1.1,0-2-0.9-2-2v-32.74c0-1.1,0.9-2,2-2h199.23c1.1,0,2,0.9,2,2v32.74
			C284.04,300.85,283.14,301.75,282.04,301.75z"/>
		<g>
			<path style="fill:none;stroke:#21A7F9;stroke-miterlimit:10;" d="M106.98,288.16h-2.43c-1.39,0-2.52-1.14-2.52-2.52v-4.92"/>
			<line style="fill:none;stroke:#21A7F9;stroke-miterlimit:10;" x1="97.24" y1="280.32" x2="106.86" y2="280.32"/>
			<circle style="fill:none;stroke:#21A7F9;stroke-miterlimit:10;" cx="95.25" cy="280.4" r="2.1"/>
			<circle style="fill:none;stroke:#21A7F9;stroke-miterlimit:10;" cx="109.13" cy="280.4" r="2.1"/>
			<circle style="fill:none;stroke:#21A7F9;stroke-miterlimit:10;" cx="109.13" cy="288.36" r="2.1"/>
		</g>
		<g>
			<text transform="matrix(1 0 0 1 121.9236 288.3568)" style="fill:#21A7F9; font-family:'system-ui'; font-size:16px;">test/change-indexes</text>
		</g>
	</g>
	<g>
		<path style="fill:none;stroke:#C9CBCF;stroke-width:1.4;stroke-miterlimit:10;" d="M102.6,172.38h-3.9
			c-2.58,0-4.69-2.11-4.69-4.69v-22.28"/>
		<circle style="fill:none;stroke:#C9CBCF;stroke-width:1.4;stroke-miterlimit:10;" cx="107.18" cy="172.38" r="4.49"/>
	</g>
	<g>
		
			<linearGradient id="SVGID_00000126290897627589303000000001368268114013046914_" gradientUnits="userSpaceOnUse" x1="219.4256" y1="154.0113" x2="219.4256" y2="190.7487">
			<stop  offset="0" style="stop-color:#232140"/>
			<stop  offset="1" style="stop-color:#16142C"/>
		</linearGradient>
		<path style="fill:url(#SVGID_00000126290897627589303000000001368268114013046914_);stroke:#232140;stroke-miterlimit:10;" d="
			M319.04,190.75H119.81c-1.1,0-2-0.9-2-2v-32.74c0-1.1,0.9-2,2-2h199.23c1.1,0,2,0.9,2,2v32.74
			C321.04,189.85,320.14,190.75,319.04,190.75z"/>
		<g>
			<path style="fill:none;stroke:#A4A0FB;stroke-miterlimit:10;" d="M143.98,177.16h-2.43c-1.39,0-2.52-1.14-2.52-2.52v-4.92"/>
			<line style="fill:none;stroke:#A4A0FB;stroke-miterlimit:10;" x1="134.24" y1="169.32" x2="143.86" y2="169.32"/>
			<circle style="fill:none;stroke:#A4A0FB;stroke-miterlimit:10;" cx="132.25" cy="169.4" r="2.1"/>
			<circle style="fill:none;stroke:#A4A0FB;stroke-miterlimit:10;" cx="146.13" cy="169.4" r="2.1"/>
			<circle style="fill:none;stroke:#A4A0FB;stroke-miterlimit:10;" cx="146.13" cy="177.36" r="2.1"/>
		</g>
		<g>
			<text transform="matrix(1 0 0 1 158.9236 177.3568)" style="fill:#A4A0FB; font-family:'system-ui'; font-size:16px;">feat/test-user-age</text>
		</g>
	</g>
</g>
</svg>
