<?xml version="1.0" encoding="utf-8"?>
<!-- Generator: Adobe Illustrator 28.0.0, SVG Export Plug-In . SVG Version: 6.00 Build 0)  -->
<svg version="1.1" id="Layer_1" xmlns="http://www.w3.org/2000/svg" xmlns:xlink="http://www.w3.org/1999/xlink" x="0px" y="0px"
	 viewBox="0 0 793.08 191.66" style="enable-background:new 0 0 793.08 191.66;" xml:space="preserve">
<g>
	<g>
		<g>
			<path style="fill:none;stroke:#D9DBDF;stroke-width:1.4;stroke-linecap:round;stroke-miterlimit:10;" d="M29.87,69.63h-3.9
				c-2.58,0-4.69-2.11-4.69-4.69V42.66"/>
			
				<circle style="fill:none;stroke:#D9DBDF;stroke-width:1.4;stroke-linecap:round;stroke-miterlimit:10;" cx="34.45" cy="69.63" r="4.49"/>
		</g>
		<g>
			<linearGradient id="SVGID_1_" gradientUnits="userSpaceOnUse" x1="113.0332" y1="0.5" x2="113.0332" y2="37.2374">
				<stop  offset="0" style="stop-color:#232140"/>
				<stop  offset="1" style="stop-color:#16142C"/>
			</linearGradient>
			<path style="fill:url(#SVGID_1_);stroke:#232140;stroke-miterlimit:10;" d="M217.65,37.24H8.42c-1.1,0-2-0.9-2-2V2.5
				c0-1.1,0.9-2,2-2h209.23c1.1,0,2,0.9,2,2v32.74C219.65,36.34,218.75,37.24,217.65,37.24z"/>
			<text transform="matrix(1 0 0 1 47.5312 23.8452)" style="fill:#D9DBDF; font-family:'Roboto-Regular'; font-size:16px;">main</text>
			<path style="fill:none;stroke:#D9DBDF;stroke-miterlimit:10;" d="M36.22,13.24c0,2.28-3.69,4.12-8.25,4.12s-8.25-1.85-8.25-4.12
				 M36.22,13.24c0-2.28-3.69-4.12-8.25-4.12s-8.25,1.85-8.25,4.12 M36.22,13.24v11.25c0,2.28-3.69,4.12-8.25,4.12
				s-8.25-1.85-8.25-4.12V13.24 M36.22,13.24v3.75 M19.72,13.24v3.75 M36.22,16.99v3.75c0,2.28-3.69,4.12-8.25,4.12
				s-8.25-1.85-8.25-4.12v-3.75 M36.22,16.99c0,2.28-3.69,4.12-8.25,4.12s-8.25-1.85-8.25-4.12"/>
		</g>
		<g>
			
				<linearGradient id="SVGID_00000015355904943187998800000004007673377106903711_" gradientUnits="userSpaceOnUse" x1="148.0332" y1="50.5" x2="148.0332" y2="87.2374">
				<stop  offset="0" style="stop-color:#232140"/>
				<stop  offset="1" style="stop-color:#16142C"/>
			</linearGradient>
			<path style="fill:url(#SVGID_00000015355904943187998800000004007673377106903711_);stroke:#232140;stroke-miterlimit:10;" d="
				M247.65,87.24H48.42c-1.1,0-2-0.9-2-2V52.5c0-1.1,0.9-2,2-2h199.23c1.1,0,2,0.9,2,2v32.74
				C249.65,86.34,248.75,87.24,247.65,87.24z"/>
			<g>
				<path style="fill:none;stroke:#58E6D9;stroke-miterlimit:10;" d="M72.59,73.65h-2.43c-1.39,0-2.52-1.14-2.52-2.52V66.2"/>
				<line style="fill:none;stroke:#58E6D9;stroke-miterlimit:10;" x1="62.85" y1="65.81" x2="72.47" y2="65.81"/>
				<circle style="fill:none;stroke:#58E6D9;stroke-miterlimit:10;" cx="60.86" cy="65.89" r="2.1"/>
				<circle style="fill:none;stroke:#58E6D9;stroke-miterlimit:10;" cx="74.74" cy="65.89" r="2.1"/>
				<circle style="fill:none;stroke:#58E6D9;stroke-miterlimit:10;" cx="74.74" cy="73.85" r="2.1"/>
			</g>
			<g>
				<text transform="matrix(1 0 0 1 87.5312 73.8452)" style="fill:#58E6D9; font-family:'IBMPlexSans-Regular'; font-size:16px;">feat/add-user-age</text>
			</g>
		</g>
		<g>
			
				<linearGradient id="SVGID_00000039835093267789353610000000479342663846170797_" gradientUnits="userSpaceOnUse" x1="172.4471" y1="7814.083" x2="172.4471" y2="7721.3457" gradientTransform="matrix(1 0 0 -1 -102.3342 7912.501)">
				<stop  offset="0" style="stop-color:#232140"/>
				<stop  offset="1" style="stop-color:#16142C"/>
			</linearGradient>
			<path style="fill:url(#SVGID_00000039835093267789353610000000479342663846170797_);stroke:#232140;stroke-miterlimit:10;" d="
				M137.73,110.42H81.57l-11.58-12l-11.6,12H2.5c-1.1,0-2,0.9-2,2v76.74c0,1.1,0.9,2,2,2h135.23c1.1,0,2-0.9,2-2v-76.74
				C139.73,111.31,138.83,110.42,137.73,110.42z"/>
			<text transform="matrix(1 0 0 1 33.2946 135.5918)" style="fill:#D9DBDF; font-family:'Roboto-Medium'; font-size:12px;">Cost</text>
			<g>
				<text transform="matrix(1 0 0 1 9.6388 161.7549)" style="fill:#D9DBDF; font-family:'Roboto-Medium'; font-size:12px;">FREE</text>
				<text transform="matrix(1 0 0 1 9.6391 177.5667)" style="fill:#D9DBDF; font-family:'Roboto-Light'; font-size:12px;">n/a</text>
			</g>
			<path style="fill:none;stroke:#58E6D9;stroke-width:0.8889;stroke-miterlimit:10;" d="M18.06,125.76v10.67 M15.39,133.92
				l0.78,0.59c1.04,0.78,2.73,0.78,3.77,0c1.04-0.78,1.04-2.05,0-2.83c-0.52-0.39-1.2-0.59-1.89-0.59c-0.64,0-1.29-0.2-1.78-0.59
				c-0.98-0.78-0.98-2.05,0-2.83s2.58-0.78,3.56,0l0.37,0.29 M26.06,131.09c0,4.42-3.58,8-8,8c-4.42,0-8-3.58-8-8s3.58-8,8-8
				C22.47,123.09,26.06,126.67,26.06,131.09z"/>
		</g>
	</g>
	<g>
		<g>
			<path style="fill:none;stroke:#D9DBDF;stroke-width:1.4;stroke-linecap:round;stroke-miterlimit:10;" d="M301.34,69.63h-3.9
				c-2.58,0-4.69-2.11-4.69-4.69V42.66"/>
			
				<circle style="fill:none;stroke:#D9DBDF;stroke-width:1.4;stroke-linecap:round;stroke-miterlimit:10;" cx="305.91" cy="69.63" r="4.49"/>
		</g>
		<g>
			
				<linearGradient id="SVGID_00000178168058961571384690000004239646949625404862_" gradientUnits="userSpaceOnUse" x1="384.4984" y1="0.5" x2="384.4984" y2="37.2374">
				<stop  offset="0" style="stop-color:#232140"/>
				<stop  offset="1" style="stop-color:#16142C"/>
			</linearGradient>
			<path style="fill:url(#SVGID_00000178168058961571384690000004239646949625404862_);stroke:#232140;stroke-miterlimit:10;" d="
				M489.11,37.24H279.89c-1.1,0-2-0.9-2-2V2.5c0-1.1,0.9-2,2-2h209.23c1.1,0,2,0.9,2,2v32.74
				C491.11,36.34,490.22,37.24,489.11,37.24z"/>
			<text transform="matrix(1 0 0 1 318.9964 23.8452)" style="fill:#D9DBDF; font-family:'Roboto-Regular'; font-size:16px;">main</text>
			<path style="fill:none;stroke:#D9DBDF;stroke-miterlimit:10;" d="M307.69,13.24c0,2.28-3.69,4.12-8.25,4.12s-8.25-1.85-8.25-4.12
				 M307.69,13.24c0-2.28-3.69-4.12-8.25-4.12s-8.25,1.85-8.25,4.12 M307.69,13.24v11.25c0,2.28-3.69,4.12-8.25,4.12
				s-8.25-1.85-8.25-4.12V13.24 M307.69,13.24v3.75 M291.19,13.24v3.75 M307.69,16.99v3.75c0,2.28-3.69,4.12-8.25,4.12
				s-8.25-1.85-8.25-4.12v-3.75 M307.69,16.99c0,2.28-3.69,4.12-8.25,4.12s-8.25-1.85-8.25-4.12"/>
		</g>
		<g>
			
				<linearGradient id="SVGID_00000023259268638859381330000012628334136898130567_" gradientUnits="userSpaceOnUse" x1="419.4984" y1="50.5" x2="419.4984" y2="87.2374">
				<stop  offset="0" style="stop-color:#232140"/>
				<stop  offset="1" style="stop-color:#16142C"/>
			</linearGradient>
			<path style="fill:url(#SVGID_00000023259268638859381330000012628334136898130567_);stroke:#232140;stroke-miterlimit:10;" d="
				M519.11,87.24H319.89c-1.1,0-2-0.9-2-2V52.5c0-1.1,0.9-2,2-2h199.23c1.1,0,2,0.9,2,2v32.74
				C521.11,86.34,520.22,87.24,519.11,87.24z"/>
			<g>
				<path style="fill:none;stroke:#58E6D9;stroke-miterlimit:10;" d="M344.06,73.65h-2.43c-1.39,0-2.52-1.14-2.52-2.52V66.2"/>
				<line style="fill:none;stroke:#58E6D9;stroke-miterlimit:10;" x1="334.31" y1="65.81" x2="343.93" y2="65.81"/>
				<circle style="fill:none;stroke:#58E6D9;stroke-miterlimit:10;" cx="332.33" cy="65.89" r="2.1"/>
				<circle style="fill:none;stroke:#58E6D9;stroke-miterlimit:10;" cx="346.2" cy="65.89" r="2.1"/>
				<circle style="fill:none;stroke:#58E6D9;stroke-miterlimit:10;" cx="346.2" cy="73.85" r="2.1"/>
			</g>
			<g>
				<text transform="matrix(1 0 0 1 358.9964 73.8452)" style="fill:#58E6D9; font-family:'IBMPlexSans-Regular'; font-size:16px;">feat/add-user-age</text>
			</g>
		</g>
		<g>
			
				<linearGradient id="SVGID_00000114038513126875756450000005005537807942297765_" gradientUnits="userSpaceOnUse" x1="443.9123" y1="7814.083" x2="443.9123" y2="7721.3457" gradientTransform="matrix(1 0 0 -1 -102.3342 7912.501)">
				<stop  offset="0" style="stop-color:#232140"/>
				<stop  offset="1" style="stop-color:#16142C"/>
			</linearGradient>
			<path style="fill:url(#SVGID_00000114038513126875756450000005005537807942297765_);stroke:#232140;stroke-miterlimit:10;" d="
				M409.19,110.42h-56.16l-11.58-12l-11.6,12h-55.88c-1.1,0-2,0.9-2,2v76.74c0,1.1,0.9,2,2,2h135.23c1.1,0,2-0.9,2-2v-76.74
				C411.19,111.31,410.3,110.42,409.19,110.42z"/>
			<text transform="matrix(1 0 0 1 304.7598 135.5918)" style="fill:#D9DBDF; font-family:'Roboto-Medium'; font-size:12px;">Cost</text>
			<g>
				<text transform="matrix(1 0 0 1 281.104 161.7549)" style="fill:#D9DBDF; font-family:'Roboto-Medium'; font-size:12px;"> ~$0.32:</text>
				<text transform="matrix(1 0 0 1 281.1043 177.5667)" style="fill:#D9DBDF; font-family:'Roboto-Light'; font-size:12px;">Per branch, per day</text>
			</g>
			<path style="fill:none;stroke:#58E6D9;stroke-width:0.8889;stroke-miterlimit:10;" d="M289.52,125.76v10.67 M286.85,133.92
				l0.78,0.59c1.04,0.78,2.73,0.78,3.77,0c1.04-0.78,1.04-2.05,0-2.83c-0.52-0.39-1.2-0.59-1.89-0.59c-0.64,0-1.29-0.2-1.78-0.59
				c-0.98-0.78-0.98-2.05,0-2.83c0.98-0.78,2.58-0.78,3.56,0l0.37,0.29 M297.52,131.09c0,4.42-3.58,8-8,8s-8-3.58-8-8s3.58-8,8-8
				S297.52,126.67,297.52,131.09z"/>
		</g>
	</g>
	<g>
		<g>
			<path style="fill:none;stroke:#D9DBDF;stroke-width:1.4;stroke-linecap:round;stroke-miterlimit:10;" d="M572.8,69.63h-3.9
				c-2.58,0-4.69-2.11-4.69-4.69V42.66"/>
			
				<circle style="fill:none;stroke:#D9DBDF;stroke-width:1.4;stroke-linecap:round;stroke-miterlimit:10;" cx="577.38" cy="69.63" r="4.49"/>
		</g>
		<g>
			
				<linearGradient id="SVGID_00000091698461768576373230000015531956260099859899_" gradientUnits="userSpaceOnUse" x1="655.9636" y1="0.5" x2="655.9636" y2="37.2374">
				<stop  offset="0" style="stop-color:#232140"/>
				<stop  offset="1" style="stop-color:#16142C"/>
			</linearGradient>
			<path style="fill:url(#SVGID_00000091698461768576373230000015531956260099859899_);stroke:#232140;stroke-miterlimit:10;" d="
				M760.58,37.24H551.35c-1.1,0-2-0.9-2-2V2.5c0-1.1,0.9-2,2-2h209.23c1.1,0,2,0.9,2,2v32.74
				C762.58,36.34,761.68,37.24,760.58,37.24z"/>
			<text transform="matrix(1 0 0 1 590.4616 23.8452)" style="fill:#D9DBDF; font-family:'Roboto-Regular'; font-size:16px;">main</text>
			<path style="fill:none;stroke:#D9DBDF;stroke-miterlimit:10;" d="M579.16,13.24c0,2.28-3.69,4.12-8.25,4.12
				c-4.56,0-8.25-1.85-8.25-4.12 M579.16,13.24c0-2.28-3.69-4.12-8.25-4.12c-4.56,0-8.25,1.85-8.25,4.12 M579.16,13.24v11.25
				c0,2.28-3.69,4.12-8.25,4.12c-4.56,0-8.25-1.85-8.25-4.12V13.24 M579.16,13.24v3.75 M562.66,13.24v3.75 M579.16,16.99v3.75
				c0,2.28-3.69,4.12-8.25,4.12c-4.56,0-8.25-1.85-8.25-4.12v-3.75 M579.16,16.99c0,2.28-3.69,4.12-8.25,4.12
				c-4.56,0-8.25-1.85-8.25-4.12"/>
		</g>
		<g>
			
				<linearGradient id="SVGID_00000133526417739274894240000001467402328676689334_" gradientUnits="userSpaceOnUse" x1="690.9636" y1="50.5" x2="690.9636" y2="87.2374">
				<stop  offset="0" style="stop-color:#232140"/>
				<stop  offset="1" style="stop-color:#16142C"/>
			</linearGradient>
			<path style="fill:url(#SVGID_00000133526417739274894240000001467402328676689334_);stroke:#232140;stroke-miterlimit:10;" d="
				M790.58,87.24H591.35c-1.1,0-2-0.9-2-2V52.5c0-1.1,0.9-2,2-2h199.23c1.1,0,2,0.9,2,2v32.74
				C792.58,86.34,791.68,87.24,790.58,87.24z"/>
			<g>
				<path style="fill:none;stroke:#58E6D9;stroke-miterlimit:10;" d="M615.52,73.65h-2.43c-1.39,0-2.52-1.14-2.52-2.52V66.2"/>
				<line style="fill:none;stroke:#58E6D9;stroke-miterlimit:10;" x1="605.78" y1="65.81" x2="615.4" y2="65.81"/>
				<circle style="fill:none;stroke:#58E6D9;stroke-miterlimit:10;" cx="603.79" cy="65.89" r="2.1"/>
				<circle style="fill:none;stroke:#58E6D9;stroke-miterlimit:10;" cx="617.67" cy="65.89" r="2.1"/>
				<circle style="fill:none;stroke:#58E6D9;stroke-miterlimit:10;" cx="617.67" cy="73.85" r="2.1"/>
			</g>
			<g>
				<text transform="matrix(1 0 0 1 630.4615 73.8452)" style="fill:#58E6D9; font-family:'IBMPlexSans-Regular'; font-size:16px;">feat/add-user-age</text>
			</g>
		</g>
		<g>
			
				<linearGradient id="SVGID_00000018919280930148904160000000267506591262068881_" gradientUnits="userSpaceOnUse" x1="715.3774" y1="7814.083" x2="715.3774" y2="7721.3457" gradientTransform="matrix(1 0 0 -1 -102.3342 7912.501)">
				<stop  offset="0" style="stop-color:#232140"/>
				<stop  offset="1" style="stop-color:#16142C"/>
			</linearGradient>
			<path style="fill:url(#SVGID_00000018919280930148904160000000267506591262068881_);stroke:#232140;stroke-miterlimit:10;" d="
				M680.66,110.42H624.5l-11.58-12l-11.6,12h-55.88c-1.1,0-2,0.9-2,2v76.74c0,1.1,0.9,2,2,2h135.23c1.1,0,2-0.9,2-2v-76.74
				C682.66,111.31,681.76,110.42,680.66,110.42z"/>
			<text transform="matrix(1 0 0 1 576.225 135.5918)" style="fill:#D9DBDF; font-family:'Roboto-Medium'; font-size:12px;">Cost</text>
			<g>
				<text transform="matrix(1 0 0 1 552.5692 161.7549)" style="fill:#D9DBDF; font-family:'Roboto-Medium'; font-size:12px;">$0.014:</text>
				<text transform="matrix(1 0 0 1 552.5695 177.5667)" style="fill:#D9DBDF; font-family:'Roboto-Light'; font-size:12px;">Per hour</text>
			</g>
			<path style="fill:none;stroke:#58E6D9;stroke-width:0.8889;stroke-miterlimit:10;" d="M560.99,125.76v10.67 M558.32,133.92
				l0.78,0.59c1.04,0.78,2.73,0.78,3.77,0c1.04-0.78,1.04-2.05,0-2.83c-0.52-0.39-1.2-0.59-1.89-0.59c-0.64,0-1.29-0.2-1.78-0.59
				c-0.98-0.78-0.98-2.05,0-2.83c0.98-0.78,2.58-0.78,3.56,0l0.37,0.29 M568.99,131.09c0,4.42-3.58,8-8,8s-8-3.58-8-8s3.58-8,8-8
				S568.99,126.67,568.99,131.09z"/>
		</g>
	</g>
</g>
</svg>
