<?xml version="1.0" encoding="utf-8"?>
<!-- Generator: Adobe Illustrator 28.0.0, SVG Export Plug-In . SVG Version: 6.00 Build 0)  -->
<svg version="1.1" id="Layer_1" xmlns="http://www.w3.org/2000/svg" xmlns:xlink="http://www.w3.org/1999/xlink" x="0px" y="0px"
	 viewBox="0 0 292.28 366.1" style="enable-background:new 0 0 292.28 366.1;" xml:space="preserve">
<g>
	<g>
		<path style="fill:none;stroke:#D9DBDF;stroke-width:1.4;stroke-linecap:round;stroke-miterlimit:10;" d="M72.01,208.79h-3.9
			c-2.58,0-4.69-2.11-4.69-4.69v-22.28"/>
		
			<circle style="fill:none;stroke:#D9DBDF;stroke-width:1.4;stroke-linecap:round;stroke-miterlimit:10;" cx="76.59" cy="208.79" r="4.49"/>
	</g>
	<g>
		<linearGradient id="SVGID_1_" gradientUnits="userSpaceOnUse" x1="155.1714" y1="139.6595" x2="155.1714" y2="176.3969">
			<stop  offset="0" style="stop-color:#232140"/>
			<stop  offset="1" style="stop-color:#16142C"/>
		</linearGradient>
		<path style="fill:url(#SVGID_1_);stroke:#232140;stroke-miterlimit:10;" d="M259.78,176.4H50.56c-1.1,0-2-0.9-2-2v-32.74
			c0-1.1,0.9-2,2-2h209.23c1.1,0,2,0.9,2,2v32.74C261.78,175.5,260.89,176.4,259.78,176.4z"/>
		<text transform="matrix(1 0 0 1 89.6695 163.0049)" style="fill:#D9DBDF; font-family:'Roboto-Regular'; font-size:16px;">main</text>
		<path style="fill:none;stroke:#D9DBDF;stroke-miterlimit:10;" d="M78.36,152.4c0,2.28-3.69,4.12-8.25,4.12s-8.25-1.85-8.25-4.12
			 M78.36,152.4c0-2.28-3.69-4.12-8.25-4.12s-8.25,1.85-8.25,4.12 M78.36,152.4v11.25c0,2.28-3.69,4.12-8.25,4.12
			s-8.25-1.85-8.25-4.12V152.4 M78.36,152.4v3.75 M61.86,152.4v3.75 M78.36,156.15v3.75c0,2.28-3.69,4.12-8.25,4.12
			s-8.25-1.85-8.25-4.12v-3.75 M78.36,156.15c0,2.28-3.69,4.12-8.25,4.12s-8.25-1.85-8.25-4.12"/>
	</g>
	
		<linearGradient id="SVGID_00000021112230981446316140000003688966526777713325_" gradientUnits="userSpaceOnUse" x1="190.1714" y1="189.7806" x2="190.1714" y2="226.518">
		<stop  offset="0" style="stop-color:#232140"/>
		<stop  offset="1" style="stop-color:#16142C"/>
	</linearGradient>
	<path style="fill:url(#SVGID_00000021112230981446316140000003688966526777713325_);stroke:#232140;stroke-miterlimit:10;" d="
		M289.78,226.52H90.56c-1.1,0-2-0.9-2-2v-32.74c0-1.1,0.9-2,2-2h199.23c1.1,0,2,0.9,2,2v32.74
		C291.78,225.62,290.89,226.52,289.78,226.52z"/>
	<g>
		<path style="fill:none;stroke:#58E6D9;stroke-miterlimit:10;" d="M114.73,212.93h-2.43c-1.39,0-2.52-1.14-2.52-2.52v-4.92"/>
		<line style="fill:none;stroke:#58E6D9;stroke-miterlimit:10;" x1="104.99" y1="205.09" x2="114.6" y2="205.09"/>
		<circle style="fill:none;stroke:#58E6D9;stroke-miterlimit:10;" cx="103" cy="205.17" r="2.1"/>
		<circle style="fill:none;stroke:#58E6D9;stroke-miterlimit:10;" cx="116.87" cy="205.17" r="2.1"/>
		<circle style="fill:none;stroke:#58E6D9;stroke-miterlimit:10;" cx="116.87" cy="213.13" r="2.1"/>
	</g>
	<g>
		<text transform="matrix(1 0 0 1 129.6694 213.126)" style="fill:#58E6D9; font-family:'system-ui'; font-size:16px;">feat/add-user-age</text>
	</g>
	<g>
		
			<linearGradient id="SVGID_00000153695890266510206800000015600770916488415128_" gradientUnits="userSpaceOnUse" x1="70.1128" y1="0.5" x2="70.1128" y2="129.2374">
			<stop  offset="0" style="stop-color:#232140"/>
			<stop  offset="1" style="stop-color:#16142C"/>
		</linearGradient>
		<path style="fill:url(#SVGID_00000153695890266510206800000015600770916488415128_);stroke:#232140;stroke-miterlimit:10;" d="
			M137.73,117.24H81.57l-11.58,12l-11.6-12H2.5c-1.1,0-2-0.9-2-2V2.5c0-1.1,0.9-2,2-2h135.23c1.1,0,2,0.9,2,2v112.74
			C139.73,116.34,138.83,117.24,137.73,117.24z"/>
		<text transform="matrix(1 0 0 1 32.2946 22.6739)" style="fill:#D9DBDF; font-family:'Roboto-Medium'; font-size:12px;">Resource</text>
		<path style="fill:none;stroke:#D9DBDF;stroke-width:0.9143;stroke-miterlimit:10;" d="M15.72,10.17v1.33 M12.39,14.84h-1.33
			 M27.06,14.84h-1.33 M12.39,18.17h-1.33 M27.06,18.17h-1.33 M12.39,21.51h-1.33 M27.06,21.51h-1.33 M15.72,24.84v1.33
			 M19.06,10.17v1.33 M19.06,24.84v1.33 M22.39,10.17v1.33 M22.39,24.84v1.33 M14.39,24.84h9.33c1.1,0,2-0.9,2-2v-9.33
			c0-1.1-0.9-2-2-2h-9.33c-1.1,0-2,0.9-2,2v9.33C12.39,23.95,13.28,24.84,14.39,24.84z M15.06,14.17h8v8h-8V14.17z"/>
		<g>
			<text transform="matrix(1 0 0 1 12.6388 50.837)" style="fill:#D9DBDF; font-family:'Roboto-Medium'; font-size:12px;">Min:</text>
			<text transform="matrix(1 0 0 1 12.6391 66.6487)" style="fill:#D9DBDF; font-family:'Roboto-Light'; font-size:12px;">0.25 vCPU, 1 GB RAM</text>
		</g>
		<g>
			<text transform="matrix(1 0 0 1 12.6388 84.837)" style="fill:#D9DBDF; font-family:'Roboto-Medium'; font-size:12px;">Max:</text>
			<text transform="matrix(1 0 0 1 12.6391 100.6487)" style="fill:#D9DBDF; font-family:'Roboto-Light'; font-size:12px;">10 vCPU, 40 GB RAM</text>
		</g>
	</g>
	<g>
		
			<linearGradient id="SVGID_00000160155193208673942640000008573659500807998596_" gradientUnits="userSpaceOnUse" x1="214.5853" y1="7850.083" x2="214.5853" y2="7721.3457" gradientTransform="matrix(1 0 0 -1 -102.3342 8086.9453)">
			<stop  offset="0" style="stop-color:#232140"/>
			<stop  offset="1" style="stop-color:#16142C"/>
		</linearGradient>
		<path style="fill:url(#SVGID_00000160155193208673942640000008573659500807998596_);stroke:#232140;stroke-miterlimit:10;" d="
			M179.86,248.86h-56.16l-11.58-12l-11.6,12H44.64c-1.1,0-2,0.9-2,2V363.6c0,1.1,0.9,2,2,2h135.23c1.1,0,2-0.9,2-2V250.86
			C181.86,249.76,180.97,248.86,179.86,248.86z"/>
		<text transform="matrix(1 0 0 1 74.4328 274.0362)" style="fill:#D9DBDF; font-family:'Roboto-Medium'; font-size:12px;">Resource</text>
		<path style="fill:none;stroke:#58E6D9;stroke-width:0.9143;stroke-miterlimit:10;" d="M57.86,261.54v1.33 M54.53,266.2h-1.33
			 M69.19,266.2h-1.33 M54.53,269.54h-1.33 M69.19,269.54h-1.33 M54.53,272.87h-1.33 M69.19,272.87h-1.33 M57.86,276.2v1.33
			 M61.19,261.54v1.33 M61.19,276.2v1.33 M64.53,261.54v1.33 M64.53,276.2v1.33 M56.53,276.2h9.33c1.1,0,2-0.9,2-2v-9.33
			c0-1.1-0.9-2-2-2h-9.33c-1.1,0-2,0.9-2,2v9.33C54.53,275.31,55.42,276.2,56.53,276.2z M57.19,265.54h8v8h-8V265.54z"/>
		<g>
			<text transform="matrix(1 0 0 1 54.777 302.1992)" style="fill:#D9DBDF; font-family:'Roboto-Medium'; font-size:12px;">Min:</text>
			<text transform="matrix(1 0 0 1 54.7773 318.011)" style="fill:#D9DBDF; font-family:'Roboto-Light'; font-size:12px;">0.25 vCPU, 1 GB RAM</text>
		</g>
		<g>
			<text transform="matrix(1 0 0 1 54.777 336.1992)" style="fill:#D9DBDF; font-family:'Roboto-Medium'; font-size:12px;">Max:</text>
			<text transform="matrix(1 0 0 1 54.7773 352.011)" style="fill:#D9DBDF; font-family:'Roboto-Light'; font-size:12px;">10 vCPU, 40 GB RAM</text>
		</g>
	</g>
</g>
</svg>
